<svg xmlns="http://www.w3.org/2000/svg" class="concept-svg" role="img" aria-labelledby="examine-art-title" viewBox="0 0 280 215"><title id="examine-art-title">A lens focuses on evidence from one system component.</title><path d="M42 25H148L172 49V180H42Z" fill="#FCF9F2" stroke="#183D32" stroke-width="1.6" stroke-linejoin="round" stroke-linecap="round" vector-effect="non-scaling-stroke"></path><path d="M148 25V49H172" fill="none" stroke="#A6B3A0" stroke-width="1.6" stroke-linejoin="round" stroke-linecap="round" vector-effect="non-scaling-stroke"></path><g transform="translate(68 67) scale(0.75)"><path d="M0 30H30V0H65V60H98M30 30H65" fill="none" stroke="#A6B3A0" stroke-width="1.6" stroke-linejoin="round" stroke-linecap="round" vector-effect="non-scaling-stroke"></path><rect x="-10" y="21" width="20" height="18" rx="3" fill="#E4E9DE" stroke="#183D32" stroke-width="1.3" vector-effect="non-scaling-stroke"></rect><rect x="20" y="-9" width="20" height="18" rx="3" fill="#E4E9DE" stroke="#183D32" stroke-width="1.3" vector-effect="non-scaling-stroke"></rect><rect x="55" y="21" width="20" height="18" rx="3" fill="#E4E9DE" stroke="#183D32" stroke-width="1.3" vector-effect="non-scaling-stroke"></rect><rect x="88" y="51" width="20" height="18" rx="3" fill="#E4E9DE" stroke="#183D32" stroke-width="1.3" vector-effect="non-scaling-stroke"></rect><circle cx="65" cy="0" r="4" fill="#B58A46" stroke="none" stroke-width="1.5"></circle></g><circle cx="168" cy="92" r="41" fill="#FCF9F2" stroke="#183D32" stroke-width="1.5"></circle><path d="M198 122L238 163" fill="none" stroke="#183D32" stroke-width="6" stroke-linejoin="round" stroke-linecap="round" vector-effect="non-scaling-stroke"></path><circle cx="168" cy="92" r="29" fill="none" stroke="#A6B3A0" stroke-width="1.5"></circle><path d="M145 98H155L163 77L174 112L185 91" fill="none" stroke="#A6B3A0" stroke-width="1.1" stroke-linejoin="round" stroke-linecap="round" vector-effect="non-scaling-stroke"></path><path d="M145 98H155L163 77L174 112L185 91" fill="none" stroke="#B58A46" stroke-width="2.3" stroke-linejoin="round" stroke-linecap="round" vector-effect="non-scaling-stroke" class="art-travel" pathLength="1"></path></svg>
