<svg xmlns="http://www.w3.org/2000/svg" class="concept-svg" role="img" aria-labelledby="review-art-title" viewBox="0 0 520 410"><title id="review-art-title">An agent result reaches a checker. The return path passes through an evidence checkpoint before another attempt.</title><path d="M37 44H481V366H37Z" fill="#E4E9DE" stroke="#A6B3A0" stroke-width="0.7" stroke-linejoin="round" stroke-linecap="round" vector-effect="non-scaling-stroke"></path><path d="M157 110H214Q234 110 234 132V161H352" fill="none" stroke="#A6B3A0" stroke-width="1.1" stroke-linejoin="round" stroke-linecap="round" vector-effect="non-scaling-stroke"></path><path d="M157 110H214Q234 110 234 132V161H352" fill="none" stroke="#B58A46" stroke-width="2.3" stroke-linejoin="round" stroke-linecap="round" vector-effect="non-scaling-stroke" class="art-travel" pathLength="1"></path><path d="M426 196V305Q426 325 406 325H216Q196 325 196 305V276" fill="none" stroke="#A6B3A0" stroke-width="1.1" stroke-linejoin="round" stroke-linecap="round" vector-effect="non-scaling-stroke"></path><path d="M426 196V305Q426 325 406 325H216Q196 325 196 305V276" fill="none" stroke="#B58A46" stroke-width="2.3" stroke-linejoin="round" stroke-linecap="round" vector-effect="non-scaling-stroke" class="art-travel" pathLength="1"></path><path d="M172 264H93Q72 264 72 241V172" fill="none" stroke="#B58A46" stroke-width="1.6" stroke-linejoin="round" stroke-linecap="round" vector-effect="non-scaling-stroke"></path><path d="M67 178L72 169L77 178" fill="none" stroke="#B58A46" stroke-width="1.6" stroke-linejoin="round" stroke-linecap="round" vector-effect="non-scaling-stroke"></path><path d="M59 69H133L157 93V174H59Z" fill="#FCF9F2" stroke="#183D32" stroke-width="1.6" stroke-linejoin="round" stroke-linecap="round" vector-effect="non-scaling-stroke"></path><path d="M133 69V93H157" fill="none" stroke="#A6B3A0" stroke-width="1.6" stroke-linejoin="round" stroke-linecap="round" vector-effect="non-scaling-stroke"></path><g transform="translate(82 99) scale(0.53)"><path d="M0 30H30V0H65V60H98M30 30H65" fill="none" stroke="#A6B3A0" stroke-width="1.6" stroke-linejoin="round" stroke-linecap="round" vector-effect="non-scaling-stroke"></path><rect x="-10" y="21" width="20" height="18" rx="3" fill="#E4E9DE" stroke="#183D32" stroke-width="1.3" vector-effect="non-scaling-stroke"></rect><rect x="20" y="-9" width="20" height="18" rx="3" fill="#E4E9DE" stroke="#183D32" stroke-width="1.3" vector-effect="non-scaling-stroke"></rect><rect x="55" y="21" width="20" height="18" rx="3" fill="#E4E9DE" stroke="#183D32" stroke-width="1.3" vector-effect="non-scaling-stroke"></rect><rect x="88" y="51" width="20" height="18" rx="3" fill="#E4E9DE" stroke="#183D32" stroke-width="1.3" vector-effect="non-scaling-stroke"></rect><circle cx="65" cy="0" r="4" fill="#B58A46" stroke="none" stroke-width="1.5"></circle></g><rect x="352" y="115" width="100" height="88" rx="3" fill="#FCF9F2" stroke="#183D32" stroke-width="1.3" vector-effect="non-scaling-stroke"></rect><path d="M380 137L425 179M425 137L380 179" fill="none" stroke="#183D32" stroke-width="2" stroke-linejoin="round" stroke-linecap="round" vector-effect="non-scaling-stroke"></path><path d="M196 212L240 256L196 300L152 256Z" fill="#FCF9F2" stroke="#183D32" stroke-width="1.6" stroke-linejoin="round" stroke-linecap="round" vector-effect="non-scaling-stroke"></path><circle cx="196" cy="246" r="4" fill="#B58A46" stroke="none" stroke-width="1.5"></circle><path d="M196 258V272" fill="none" stroke="#B58A46" stroke-width="2" stroke-linejoin="round" stroke-linecap="round" vector-effect="non-scaling-stroke"></path><path d="M240 256H344" fill="none" stroke="#A6B3A0" stroke-width="1.6" stroke-linejoin="round" stroke-linecap="round" vector-effect="non-scaling-stroke"></path><circle cx="357" cy="256" r="12" fill="#FCF9F2" stroke="#183D32" stroke-width="1.5"></circle><path d="M352 251L362 261M362 251L352 261" fill="none" stroke="#183D32" stroke-width="1.6" stroke-linejoin="round" stroke-linecap="round" vector-effect="non-scaling-stroke"></path></svg>
